HIERARCHY
ROOT root
{
	OFFSET 0.000000 0.000000 0.000000
	CHANNELS 6 Xposition Yposition Zposition Zrotation Yrotation Xrotation
	JOINT lhip
	{
		OFFSET 0.058581 -0.082280 -0.017664
		CHANNELS 3 Zrotation Yrotation Xrotation
		JOINT lknee
		{
			OFFSET 0.043451 -0.386469 0.008037
			CHANNELS 3 Zrotation Yrotation Xrotation
			JOINT lankle
			{
				OFFSET -0.014790 -0.426874 -0.037428
				CHANNELS 3 Zrotation Yrotation Xrotation
				JOINT ltoe
				{
					OFFSET 0.041054 -0.060286 0.122042
					CHANNELS 3 Zrotation Yrotation Xrotation
					End Site
					{
						OFFSET 0.000000 0.000000 0.000000
					}
				}
			}
		}
	}
	JOINT rhip
	{
		OFFSET -0.060310 -0.090513 -0.013543
		CHANNELS 3 Zrotation Yrotation Xrotation
		JOINT rknee
		{
			OFFSET -0.043257 -0.383688 -0.004843
			CHANNELS 3 Zrotation Yrotation Xrotation
			JOINT rankle
			{
				OFFSET 0.019056 -0.420046 -0.034562
				CHANNELS 3 Zrotation Yrotation Xrotation
				JOINT rtoe
				{
					OFFSET -0.034840 -0.062106 0.130323
					CHANNELS 3 Zrotation Yrotation Xrotation
					End Site
					{
						OFFSET 0.000000 0.000000 0.000000
					}
				}
			}
		}
	}
	JOINT lowerback
	{
		OFFSET 0.004439 0.124404 -0.038385
		CHANNELS 3 Zrotation Yrotation Xrotation
		JOINT upperback
		{
			OFFSET 0.004488 0.137956 0.026820
			CHANNELS 3 Zrotation Yrotation Xrotation
			JOINT chest
			{
				OFFSET -0.002265 0.056032 0.002855
				CHANNELS 3 Zrotation Yrotation Xrotation
				JOINT lowerneck
				{
					OFFSET -0.013390 0.211636 -0.033468
					CHANNELS 3 Zrotation Yrotation Xrotation
					JOINT upperneck
					{
						OFFSET 0.010113 0.088937 0.050410
						CHANNELS 3 Zrotation Yrotation Xrotation
						End Site
						{
							OFFSET 0.000000 0.000000 0.000000
						}
					}
				}
				JOINT lclavicle
				{
					OFFSET 0.071702 0.114000 -0.018898
					CHANNELS 3 Zrotation Yrotation Xrotation
					JOINT lshoulder
					{
						OFFSET 0.122921 0.045205 -0.019046
						CHANNELS 3 Zrotation Yrotation Xrotation
						JOINT lelbow
						{
							OFFSET 0.255332 -0.015649 -0.022946
							CHANNELS 3 Zrotation Yrotation Xrotation
							JOINT lwrist
							{
								OFFSET 0.265709 0.012698 -0.007375
								CHANNELS 3 Zrotation Yrotation Xrotation
								End Site
								{
									OFFSET 0.000000 0.000000 0.000000
								}
							}
						}
					}
				}
				JOINT rclavicle
				{
					OFFSET -0.082954 0.112472 -0.023707
					CHANNELS 3 Zrotation Yrotation Xrotation
					JOINT rshoulder
					{
						OFFSET -0.113228 0.046853 -0.008472
						CHANNELS 3 Zrotation Yrotation Xrotation
						JOINT relbow
						{
							OFFSET -0.260127 -0.014369 -0.031269
							CHANNELS 3 Zrotation Yrotation Xrotation
							JOINT rwrist
							{
								OFFSET -0.269108 0.006794 -0.006027
								CHANNELS 3 Zrotation Yrotation Xrotation
								End Site
								{
									OFFSET 0.000000 0.000000 0.000000
								}
							}
						}
					}
				}
			}
		}
	}
}
MOTION
Frames: 9
Frame Time: 0.033333
0.148681 1.875281 0.968441 0.449682 1.583884 89.512759 6.172557 -1.718521 -39.120463 -5.839775 11.292946 15.604988 3.312610 7.377862 -2.764602 0.000000 -0.000000 0.000000 2.784219 -7.022128 7.786362 6.846210 0.112312 9.384527 -1.069468 -4.887408 -20.557423 0.000000 -0.000000 0.000000 1.555471 9.308643 17.358221 -0.031421 -2.527757 -5.121976 -0.227221 1.250825 -0.419822 1.950199 -1.826919 -8.314721 1.786031 -5.815843 9.638449 -26.802562 0.402586 -0.554273 -51.544204 -4.554875 6.243412 15.442779 -26.689189 1.744218 0.655031 -1.780812 -7.171891 21.665488 9.178769 2.552329 45.227361 15.114238 8.398887 -8.403640 25.529927 7.104941 3.185235 0.725708 -0.164347 
0.151196 1.843426 0.963859 -0.328038 1.622179 89.297566 4.700551 -1.163298 -38.604992 -5.077829 9.683250 11.358010 3.691294 6.950575 -2.213929 0.000000 -0.000000 0.000000 1.876279 -7.087103 11.369331 7.208590 3.322656 8.713309 -0.547185 -4.608300 -18.645004 0.000000 -0.000000 0.000000 1.581035 9.262704 17.753400 -0.068884 -2.205256 -5.664557 -0.495057 1.615757 -0.453921 2.393650 -1.261525 -8.072718 0.737916 -5.940353 9.841985 -26.878496 1.666445 -0.730773 -51.273717 -4.382459 5.787476 13.996894 -25.062385 2.503670 -0.341119 -1.459668 -7.038417 21.853854 9.324419 1.396955 45.734494 15.138006 11.453324 -8.425791 25.345043 3.806283 1.348483 0.705936 0.935173 
0.153204 1.810718 0.958676 -1.687758 1.671948 90.137413 4.682457 -1.963131 -39.281311 -5.159819 10.153881 12.451259 4.485566 6.797894 -1.773766 0.000000 -0.000000 0.000000 0.978835 -7.650105 12.377562 7.255647 4.039668 9.471097 -0.602095 -5.103701 -19.623814 0.000000 -0.000000 0.000000 1.010332 9.842382 16.317979 0.024595 -1.978145 -5.567778 -0.610956 1.853011 -0.753400 2.745926 -0.772921 -8.005509 0.329240 -5.607648 10.374986 -27.228081 2.422750 -0.464791 -51.034289 -3.751949 5.615748 14.002687 -23.112563 2.492375 -0.823936 -1.041177 -6.975191 22.409799 9.281862 1.377159 46.205983 15.469763 12.798251 -8.374219 25.381869 3.372402 1.714169 0.444690 1.353558 
0.159813 1.754918 0.952439 -2.705180 1.197948 90.690855 4.053537 -3.964696 -40.430518 -4.967696 9.003297 18.610086 5.171721 5.480900 2.452261 0.000000 -0.000000 0.000000 0.426522 -5.565731 14.821292 6.175810 6.090403 11.125030 0.726237 -5.580836 -16.593996 0.000000 -0.000000 0.000000 -0.316659 10.066206 14.402033 0.443245 -1.940957 -4.945723 -0.845372 2.152180 -1.355245 2.947460 -0.901489 -7.845605 0.443236 -4.901700 11.029666 -27.944449 3.307356 0.034092 -50.830566 -2.978695 5.687636 14.809775 -19.929947 2.034048 -1.207309 -0.376259 -6.553255 23.216149 8.507946 1.562397 47.416150 15.308451 14.349545 -8.546663 26.375724 3.687555 2.649797 0.400175 0.826709 
0.162062 1.735430 0.951430 -2.878434 0.983446 90.850987 4.191992 -4.638849 -41.057156 -4.924584 9.492092 21.421477 5.413518 6.234698 3.124603 0.000000 -0.000000 0.000000 -0.093871 -5.614357 15.051634 6.035204 6.074904 12.519822 1.409826 -5.748761 -15.183871 0.000000 -0.000000 0.000000 -0.775136 10.274314 13.734989 0.490147 -2.137121 -4.868570 -0.826992 2.084367 -1.322628 3.125645 -0.893597 -7.980850 0.549705 -4.779355 11.506809 -28.090155 3.538681 0.101581 -50.807649 -2.774045 5.607261 15.095110 -19.174631 1.808852 -1.061239 -0.122985 -6.515718 23.552200 8.098452 1.775013 47.966029 15.448473 14.599346 -8.725103 26.596075 3.548934 2.441080 0.390874 0.846006 
0.166685 1.695769 0.953137 -2.605349 0.195476 91.075125 4.229715 -6.830626 -40.647253 -5.682917 10.803745 24.673255 6.690528 7.364461 2.254122 0.000000 -0.000000 0.000000 -1.035720 -5.106145 15.273854 5.668313 5.738410 16.035351 2.968435 -6.688222 -11.605612 0.000000 -0.000000 0.000000 -2.301995 10.498293 12.341758 0.701409 -2.526632 -4.716247 -0.654650 1.803256 -1.285228 3.494674 -1.276963 -7.880003 0.729733 -4.614369 12.439634 -27.873109 3.738545 0.670999 -51.035313 -2.799976 5.455638 15.494534 -17.919558 1.633321 -1.433424 0.376188 -6.897101 23.844252 7.419840 2.192308 49.647358 15.087391 15.209155 -9.402549 26.811630 3.182045 2.688228 0.196969 0.306957 
0.172106 1.656507 0.959204 -1.586588 -0.426758 90.868875 2.801780 -8.668175 -37.925018 -6.346508 10.393666 25.319543 8.659850 7.954329 0.238034 0.000000 -0.000000 0.000000 -2.453451 -5.070850 14.402306 6.293810 4.410124 21.918809 5.145770 -6.407330 -3.869010 0.000000 -0.000000 0.000000 -3.318371 10.127895 11.320759 0.815006 -2.712483 -4.670602 -0.561036 1.382038 -1.157347 3.476573 -2.091891 -6.579706 0.706370 -3.972534 12.969160 -27.401091 3.422359 1.398986 -51.435522 -3.197003 5.376337 15.903297 -17.042798 1.071006 -2.389558 0.641266 -7.313203 23.710898 6.842336 2.524422 51.409313 14.452065 15.710929 -9.572991 26.667691 2.711924 3.746953 0.010804 -0.331412 
0.178507 1.618706 0.967954 -0.501923 -0.800453 90.035103 0.148919 -9.181367 -32.793567 -6.481878 8.453096 23.562990 10.890396 8.434167 -1.430765 0.000000 -0.000000 0.000000 -4.362373 -5.077513 12.291254 6.963024 1.754307 29.951965 7.442405 -5.937054 6.919123 0.000000 -0.000000 0.000000 -3.531338 9.163937 10.965754 0.725994 -2.514909 -4.414797 -0.611907 1.151069 -1.102034 3.080891 -3.449178 -4.391220 0.688071 -2.925988 12.812738 -27.131729 2.787099 1.973576 -51.387844 -3.755524 5.181530 15.950277 -17.434404 0.497204 -3.916727 0.944046 -6.675407 23.353535 6.436794 2.689325 52.651697 13.934566 15.848452 -9.795286 26.892783 2.530272 5.738342 -0.184230 0.790433 
0.185163 1.582931 0.976584 0.141243 -1.025343 88.873834 -2.548619 -8.409660 -26.641059 -6.612518 5.499623 20.572826 12.508730 9.162283 -2.608290 0.000000 -0.000000 0.000000 -6.129635 -4.625940 8.808326 7.020830 -0.908235 39.229725 8.100516 -6.141101 15.285989 0.000000 -0.000000 0.000000 -3.386368 7.788294 11.182369 0.589822 -1.798392 -3.863872 -0.742623 1.169962 -1.384588 2.601910 -4.703926 -2.101927 0.480635 -1.982179 12.113551 -27.146336 2.096385 2.393520 -50.674239 -4.409201 4.977393 15.514047 -19.266267 0.031455 -5.390862 0.950541 -6.362066 22.728005 6.499871 2.682256 53.326771 13.122892 16.059873 -9.725613 27.690654 1.989123 7.592927 -0.777225 0.613505 
